<?xml version="1.0" encoding="UTF-8" standalone="no"?>
<svg width="741px" height="905px" viewBox="0 0 741 905" version="1.1" xmlns="http://www.w3.org/2000/svg" xmlns:xlink="http://www.w3.org/1999/xlink" xmlns:sketch="http://www.bohemiancoding.com/sketch/ns">
    <!-- Generator: Sketch 3.2.2 (9983) - http://www.bohemiancoding.com/sketch -->
    <title>White logo 6</title>
    <desc>Created with Sketch.</desc>
    <defs></defs>
    <g id="Page-1" stroke="none" stroke-width="1" fill="none" fill-rule="evenodd" sketch:type="MSPage">
        <g id="White-logo-6" sketch:type="MSLayerGroup" transform="translate(6.000000, 6.000000)">
            <g id="hexagon-3" stroke-width="11" stroke="#FFFFFF" sketch:type="MSShapeGroup">
                <polygon id="Background-3" points="364.696252 -3.16258173 729.392504 221.626016 729.392504 671.20321 364.696252 895.991808 2.0115642e-13 671.20321 -2.87366314e-14 221.626016 "></polygon>
            </g>
            <g id="Cleaver-4" transform="translate(294.750000, 231.933013) rotate(-30.000000) translate(-294.750000, -231.933013) translate(136.250000, 175.933013)" fill="#FFFFFF" sketch:type="MSShapeGroup">
                <g id="Blade" transform="translate(0.000000, 0.000000)">
                    <path d="M181.364161,27.1246244 C181.364161,27.1246244 108.504448,28.580639 76.160295,14.2055464 C43.8161423,-0.169546235 27.4370434,-6.12729139 15.9898825,11.351262 C3.91441433,31.8552445 0.487116252,97.6998462 0.487116252,97.6998462 C0.388520996,99.3556694 1.62551096,100.945863 3.26655604,101.246032 C3.26655604,101.246032 49.4535325,110.216474 94.6381968,110.90133 C139.822861,111.586185 182.387411,103.996625 182.387411,103.996625 C184.017169,103.723695 185.268528,102.1606 185.182555,100.50834 L181.364161,27.1246244 Z M33.8063063,30.5961538 C38.7196504,30.5961538 42.7027027,26.6140711 42.7027027,21.7019231 C42.7027027,16.7897751 38.7196504,12.8076923 33.8063063,12.8076923 C28.8929622,12.8076923 24.9099099,16.7897751 24.9099099,21.7019231 C24.9099099,26.6140711 28.8929622,30.5961538 33.8063063,30.5961538 Z"></path>
                </g>
                <g id="Handle" transform="translate(180.063063, 9.961538)">
                    <path d="M3.46806894,14.9347504 C1.83061838,15.1891367 0.567063118,16.7397962 0.645500551,18.3911142 L1.94608671,45.7719351 C1.94608671,45.7719351 96.6301573,47.6925325 119.378519,44.3488582 C138.995562,41.4654415 142.755186,5.37961981 118.366554,0.76156851 C107.307602,-1.33247293 3.46806894,14.9347504 3.46806894,14.9347504 Z M21.3513514,34.1538462 C24.102824,34.1538462 26.3333333,31.9238798 26.3333333,29.1730769 C26.3333333,26.422274 24.102824,24.1923077 21.3513514,24.1923077 C18.5998787,24.1923077 16.3693694,26.422274 16.3693694,29.1730769 C16.3693694,31.9238798 18.5998787,34.1538462 21.3513514,34.1538462 Z M68.3243243,30.5961538 C71.075797,30.5961538 73.3063063,28.3661875 73.3063063,25.6153846 C73.3063063,22.8645817 71.075797,20.6346154 68.3243243,20.6346154 C65.5728517,20.6346154 63.3423423,22.8645817 63.3423423,25.6153846 C63.3423423,28.3661875 65.5728517,30.5961538 68.3243243,30.5961538 Z M113.162162,27.75 C115.913635,27.75 118.144144,25.5200337 118.144144,22.7692308 C118.144144,20.0184279 115.913635,17.7884615 113.162162,17.7884615 C110.410689,17.7884615 108.18018,20.0184279 108.18018,22.7692308 C108.18018,25.5200337 110.410689,27.75 113.162162,27.75 Z" id="handle"></path>
                </g>
            </g>
            <g id="Cleaver-5" transform="translate(429.933013, 231.250000) scale(-1, 1) rotate(-30.000000) translate(-429.933013, -231.250000) translate(270.933013, 175.250000)" fill="#FFFFFF" sketch:type="MSShapeGroup">
                <g id="Blade" transform="translate(1.000000, 1.000000)">
                    <path d="M181.364161,27.1246244 C181.364161,27.1246244 108.504448,28.580639 76.160295,14.2055464 C43.8161423,-0.169546235 27.4370434,-6.12729139 15.9898825,11.351262 C3.91441433,31.8552445 0.487116252,97.6998462 0.487116252,97.6998462 C0.388520996,99.3556694 1.62551096,100.945863 3.26655604,101.246032 C3.26655604,101.246032 49.4535325,110.216474 94.6381968,110.90133 C139.822861,111.586185 182.387411,103.996625 182.387411,103.996625 C184.017169,103.723695 185.268528,102.1606 185.182555,100.50834 L181.364161,27.1246244 Z M33.8063063,30.5961538 C38.7196504,30.5961538 42.7027027,26.6140711 42.7027027,21.7019231 C42.7027027,16.7897751 38.7196504,12.8076923 33.8063063,12.8076923 C28.8929622,12.8076923 24.9099099,16.7897751 24.9099099,21.7019231 C24.9099099,26.6140711 28.8929622,30.5961538 33.8063063,30.5961538 Z"></path>
                </g>
                <g id="Handle" transform="translate(181.063063, 10.961538)">
                    <path d="M3.46806894,14.9347504 C1.83061838,15.1891367 0.567063118,16.7397962 0.645500551,18.3911142 L1.94608671,45.7719351 C1.94608671,45.7719351 96.6301573,47.6925325 119.378519,44.3488582 C138.995562,41.4654415 142.755186,5.37961981 118.366554,0.76156851 C107.307602,-1.33247293 3.46806894,14.9347504 3.46806894,14.9347504 Z M113.162162,27.75 C115.913635,27.75 118.144144,25.5200337 118.144144,22.7692308 C118.144144,20.0184279 115.913635,17.7884615 113.162162,17.7884615 C110.410689,17.7884615 108.18018,20.0184279 108.18018,22.7692308 C108.18018,25.5200337 110.410689,27.75 113.162162,27.75 Z M21.3513514,34.1538462 C24.102824,34.1538462 26.3333333,31.9238798 26.3333333,29.1730769 C26.3333333,26.422274 24.102824,24.1923077 21.3513514,24.1923077 C18.5998787,24.1923077 16.3693694,26.422274 16.3693694,29.1730769 C16.3693694,31.9238798 18.5998787,34.1538462 21.3513514,34.1538462 Z M68.3243243,30.5961538 C71.075797,30.5961538 73.3063063,28.3661875 73.3063063,25.6153846 C73.3063063,22.8645817 71.075797,20.6346154 68.3243243,20.6346154 C65.5728517,20.6346154 63.3423423,22.8645817 63.3423423,25.6153846 C63.3423423,28.3661875 65.5728517,30.5961538 68.3243243,30.5961538 Z" id="handle"></path>
                </g>
            </g>
            <g id="N's-2" transform="translate(75.000000, 376.000000)" fill="#FFFFFF" sketch:type="MSShapeGroup">
                <path d="M318.571507,399.395145 C316.13087,400.689223 314.151409,399.505748 314.15025,396.73629 L313.986468,5.38285054 C313.985312,2.6203271 316.213573,0.555249441 318.978384,0.771540539 L409.005991,7.81439696 C411.764106,8.03016421 415.287531,10.0262675 416.890321,12.2933834 L524.023742,163.831617 C525.620022,166.089525 526.937919,165.688409 526.967537,162.917952 L528.481681,21.2871264 C528.511215,18.5246146 530.776018,16.3930008 533.532913,16.52568 L570.654587,18.3122106 C573.414772,18.4450482 575.658969,20.7845942 575.667214,23.5618418 L576.377708,262.899096 C576.385921,265.665549 574.381957,268.894769 571.905286,270.110016 L531.54198,289.915375 C529.063717,291.131402 525.745933,290.291163 524.146451,288.059503 L416.908237,138.436591 C415.302062,136.195593 414,136.62401 414,139.376404 L414,343.799378 C414,346.559419 412.02795,349.842499 409.580837,351.140012 L318.571507,399.395145 Z" id="right-N"></path>
                <path d="M5.58425875,399.395145 C3.14362239,400.689223 1.16416138,399.505748 1.16300236,396.73629 L0.999220289,5.38285054 C0.998064168,2.6203271 3.22632477,0.555249441 5.9911362,0.771540539 L96.0187427,7.81439696 C98.7768578,8.03016421 102.300283,10.0262675 103.903073,12.2933834 L211.036493,163.831617 C212.632774,166.089525 213.950671,165.688409 213.980289,162.917952 L215.494433,21.2871264 C215.523967,18.5246146 217.78877,16.3930008 220.545665,16.52568 L257.667338,18.3122106 C260.427524,18.4450482 262.671721,20.7845942 262.679966,23.5618418 L263.39046,262.899096 C263.398673,265.665549 261.394709,268.894769 258.918038,270.110016 L218.554732,289.915375 C216.076469,291.131402 212.758685,290.291163 211.159203,288.059503 L103.920989,138.436591 C102.314814,136.195593 101.012752,136.62401 101.012752,139.376404 L101.012752,343.799378 C101.012752,346.559419 99.0407018,349.842499 96.5935889,351.140012 L5.58425875,399.395145 Z" id="left-N" transform="translate(132.194853, 200.337597) scale(-1, 1) translate(-132.194853, -200.337597) "></path>
            </g>
        </g>
    </g>
</svg>